<svg id="76272987-e5cc-45fc-a787-3e66a8d9947b" data-name="Layer 1" xmlns="http://www.w3.org/2000/svg" viewBox="0 0 267.373 97"><defs><style>.b43f4d9d-f10e-4643-b53a-c4f675b926b1{fill:#9f6553;}</style></defs><title>surtiniple logo-cafe</title><polygon class="b43f4d9d-f10e-4643-b53a-c4f675b926b1" points="0.913 70.878 0.913 70.878 0.913 70.878 0.913 70.878"/><path class="b43f4d9d-f10e-4643-b53a-c4f675b926b1" d="M268.632,29.084a46.12,46.12,0,0,0-1.384-4.708c-.733.419-1.692.647-2.107,1.45a9.138,9.138,0,0,0-.389.831,4.552,4.552,0,0,0-.871,1.654,13.515,13.515,0,0,1-.513,1.382,6.346,6.346,0,0,1-.378.717c-.083.132-.991,1.318-1.068.267a.489.489,0,0,0-.272-.411c-.653-1.858-1.236-3.74-1.8-5.626-.621-.005-1.243-.005-1.854-.01q-.3.794-.6,1.584a14.092,14.092,0,0,0-1.335,2.535,3.015,3.015,0,0,1-1.4,1.6c-.484.2-.661.094-.936-.344-.695-1.888-1.272-3.818-1.992-5.7-.369.177-1.1.53-1.465.707-.035.025-.1.066-.126.086-1,1.618-1.454,3.565-2.625,5.066a.444.444,0,0,0-.228.157c-.362.451-.747.061-.889-.35a2.794,2.794,0,0,0-.588-1.141c-.008-.008-.017-.009-.024-.016-.6-1.369-1.139-2.762-1.648-4.165-.328-.01-1-.025-1.329-.03l-.05.089a.514.514,0,0,0-.188.118,8.367,8.367,0,0,0-1.9,3.369c-.36.6-.622,1.353-1.03,1.938a2.85,2.85,0,0,1-.324.187.822.822,0,0,1-.845-.086c-.413-.94-.777-1.9-1.27-2.787-.325-.949-.654-1.9-1-2.838-.394-.005-1.187-.005-1.581-.005q-.561,1.553-1.076,3.122c-.364-.591-.722-1.187-1.111-1.768-.02-.03-.066-.1-.091-.126a23.13,23.13,0,0,0-2.455-2.672,3.4,3.4,0,0,0-.476-.464l-.085-.082-.016.011a3.222,3.222,0,0,0-1.84-.6c-.009,0-.015,0-.024,0a9.7,9.7,0,0,0-1.763-.186c-2.917-.069-5.87.228-8.791.339l-14.949.1a72.012,72.012,0,0,0-8.207-.176q-75.536-.023-151.066-.02c-2.723-.025-4.334,2.587-5.84,4.481-.4-.823-.808-1.642-1.217-2.46-.354.005-1.056.02-1.409.025-.813,2.162-1.667,4.309-2.3,6.532l-1.339.061c-.112-.314-.212-.63-.321-.944-.16-.767-.373-1.52-.589-2.279-.141-.495-.279-.984-.456-1.455a2.823,2.823,0,0,0-.722-1.694.454.454,0,0,0-.274-.138,1.934,1.934,0,0,0-1.372-.518.5.5,0,0,0-.483.546.488.488,0,0,0-.011.072,2.081,2.081,0,0,0-.225.849.454.454,0,0,0,.006.05L26,25.657c-.562,1.788-1.158,3.564-1.8,5.326-1.545-1.144-2.077-2.952-2.625-4.732a.638.638,0,0,0,0-.168,11.837,11.837,0,0,0-.344-1.4.484.484,0,0,0-.048-.087.484.484,0,0,0-.344-.507,2.019,2.019,0,0,0-1.869.181l-.258.023.073.122c-1.239,1.086-1.555,3.825-1.963,5.634-.025.033-.041.073-.069.1a.812.812,0,0,1-.9.193,1.152,1.152,0,0,1-.653-.7.431.431,0,0,0-.274-.236c-.244-.642-.489-1.283-.741-1.923a1.45,1.45,0,0,1-.066-.157c-.312-.768-.637-1.532-.963-2.3a.469.469,0,0,0-.1-.537c-.073-.076-.148-.145-.222-.209l-.067-.157h-.133a1.343,1.343,0,0,0-2.209.7c-.813,1.924-.969,3.983-1.883,5.872-.943.252-1.057-1.037-1.458-1.673-.02-.04-.056-.121-.071-.157q-.807-1.986-1.588-3.984a.413.413,0,0,0-.056-.421,1.3,1.3,0,0,0-.191-.209l-.039-.1-.1,0a1.381,1.381,0,0,0-1.406-.046L3.292,24.1l-.084.308c-.009.008-.019.014-.027.022s-.021.026-.033.038a4.98,4.98,0,0,0-.791,1.157c-.419.723-.919,1.246-.546,2.112L1.8,46.111l0,2.579c-.011.082-.019.165-.031.247a40.406,40.406,0,0,0-.01,6.007c.01,4.89.02,9.775-.005,14.666a24.563,24.563,0,0,0,.283,5.648c.01.04.035.126.045.167.409,1.263.864,2.511,1.288,3.769.354.01,1.066.02,1.42.03,1.162-2.132,1.93-4.461,3.2-6.532.187-.015.571-.056.758-.071a53.218,53.218,0,0,1,2.228,6.572c.349.01,1.036.025,1.379.035a72.632,72.632,0,0,0,3.061-6.618c.359.01,1.081.035,1.44.045a41.272,41.272,0,0,0,2.157,6.537c.369.01,1.1.035,1.465.051a64.577,64.577,0,0,1,2.662-6.588c.3,0,.889-.005,1.187-.005.606,2.228,1.334,4.42,2.157,6.572h1.566a63.623,63.623,0,0,1,2.7-6.9,13.975,13.975,0,0,1,4.537,3.905c.52-.187,1.046-.374,1.566-.566a6.3,6.3,0,0,0,4.91,4.966,63.038,63.038,0,0,0,6.482.086q89.934.015,179.862.01c.323-.035.975-.111,1.3-.152,1.672-1.132,2.718-2.91,3.875-4.516.515-.04,1.026-.106,1.541-.192l.131-.04c1.5-1.046,2.667-2.683,4.617-2.9.844,2.127,1.824,4.193,2.814,6.254l1.809.03a60.312,60.312,0,0,1,2.273-5.946c.177-.025.525-.081.7-.106a39.172,39.172,0,0,1,2.794,6.037c.566-.005,1.137-.01,1.708-.01.692-2.026,1.45-4.031,2.193-6.042h1.48c.834,2.036,1.723,4.042,2.566,6.072l1.556.02a64.758,64.758,0,0,1,2.571-6.138c.177.056.53.162.7.217,1.238,1.8,1.667,4,2.693,5.921.4-.005,1.192-.01,1.591-.015a25.734,25.734,0,0,0,1.606-3.946C268.632,59.875,268.7,44.477,268.632,29.084ZM7.051,32.261c-.2,2.95-1.4,5.714-2.036,8.578C4.3,43.325,4.3,46,3.313,48.4l0-4.24c.039-.781.065-1.563.057-2.346,0-.813-.026-1.627-.054-2.441l.006-9.488a10.415,10.415,0,0,1,1.149-3.56c.177.015.52.051.692.066A20.43,20.43,0,0,1,7.051,32.261ZM2.54,71.878h0ZM8.056,55.323c-1.106,4.228-2.566,8.356-3.637,12.6a10.224,10.224,0,0,1-1.007,2.612,43.874,43.874,0,0,1,.148-4.891.493.493,0,0,0-.031-.188c.485-2.713,1.013-5.42,1.44-8.141.9-4.127,1.172-8.361,2.167-12.463.631-2.834,1.031-5.714,1.455-8.583.49-3.536,2.011-6.8,3.354-10.073a3.15,3.15,0,0,1,1.384,1.642c.581,1.687,1.511,3.461,1.132,5.289-1.02,3.9-2.3,7.734-3.294,11.645C10.274,48.331,8.976,51.772,8.056,55.323Zm5.1,8.906c-.574,1.983-1.068,4-1.786,5.935a1.53,1.53,0,0,0-.194.178c-.067.075-.231.446-.309.465-.158.039-.446-.441-.573-.687,1.119-5.392,1.841-10.86,2.957-16.253.95-4.723,1.642-9.492,2.506-14.231a49.713,49.713,0,0,1,1.43-7.26A36.167,36.167,0,0,1,19.773,26.5a.268.268,0,0,1,.119.013,1.288,1.288,0,0,1,.533.417c1.114,2.043,2.255,4.323,1.529,6.646-.965,3.486-1.733,7.022-2.869,10.462C16.943,50.721,15.336,57.561,13.159,64.229Zm5.417,6.457a1.96,1.96,0,0,1-.336-.417c.27-3.985,1.332-7.867,1.825-11.824.965-7.275,2.738-14.408,3.749-21.673a24.458,24.458,0,0,1,3.81-10.255,2.7,2.7,0,0,1,.619.686q.024.063.047.127c.058.645.083,1.3.147,1.6.236,1.127.579,2.228.92,3.327l0,0a16.3,16.3,0,0,1-.68,5.062c-2.031,8.32-4.915,16.4-7.194,24.653C20.619,64.907,20,67.96,18.576,70.686Zm16.746-8.058a68.363,68.363,0,0,0-2.248,8.588c-.227.066-.682.2-.909.273.47-3.748,1.334-7.431,2.117-11.124.53-2.657.985-5.33,1.556-7.982C35.761,55.793,36.377,59.314,35.321,62.628ZM35.1,41.855c-2.218,6.815-4.228,13.7-6.224,20.581-.6,2.642-1.345,5.248-2.2,7.819a2.4,2.4,0,0,0-.351.246,2.119,2.119,0,0,1-.782-.782,21.408,21.408,0,0,0,.832-4.279l.315-1.74c.006-.029.013-.058.018-.088.034,0,.067.008.1.01.793-4.764,1.511-9.538,2.182-14.317,1.485-6.866,1.768-14.075,4.643-20.576a13.082,13.082,0,0,1,1.677-2.809c.773,3.223.505,6.557.839,9.831A14.253,14.253,0,0,1,35.1,41.855Zm229.33-12.289a9.049,9.049,0,0,1,1.9-3.024,14.577,14.577,0,0,1,1.344,6.168c-.146,4.794.293,9.619-.44,14.378-1.142-4.057-2.051-8.169-3.082-12.251a8.127,8.127,0,0,1,.108-4.8Q264.355,29.8,264.434,29.566Zm-33.206,4.908c-.147,12.9-.3,25.8-.258,38.7-.066,1.46-.116,3.092-1.1,4.269a5.45,5.45,0,0,1-3.774,1.334c-24.087.071-48.18-.121-72.272-.025-10.27-.071-20.541.045-30.811-.1q-39.162-.076-78.324-.04c-1.6-.04-3.41-.162-4.577-1.4-1.127-1.223-1.147-3-1.207-4.562-.03-3.743.131-7.492.056-11.235-.157-11.038.136-22.077-.126-33.11-.091-1.455,1.041-2.587,2.167-3.324,1.859-1.157,4.148-.914,6.234-.914,7.406.308,14.817-.051,22.228.015,13.979.071,27.957-.1,41.931.1,4.885.051,9.77.03,14.656.03,8.068.2,16.146-.141,24.214.253q20.081,0,40.162-.111c11.387.2,22.784.2,34.171.227a2.914,2.914,0,0,0,.994-.149,7.425,7.425,0,0,1,3.21.672,4.567,4.567,0,0,1,.8.6,6.889,6.889,0,0,1,.681.783,6.79,6.79,0,0,1,.576,1.031C231.45,29.784,231.228,32.158,231.228,34.474ZM235.9,66.19c-.505-2.081-1.455-4.077-1.516-6.244-.071-2.354.03-4.708-.01-7.063.9,3.5,1.475,7.063,2.248,10.589a66.014,66.014,0,0,1,1.349,8.366C236.507,70.312,236.457,68.109,235.9,66.19Zm8.144,5.254c-2.349-9.558-5.784-18.8-8.356-28.3-.6-2.091-1.536-4.148-1.48-6.365.061-2.875.189-5.757.485-8.621a4.49,4.49,0,0,1,.737-.941,1.9,1.9,0,0,1,.4.442c.258.416.508.837.762,1.255.011.017.025.025.037.04.928,2.389,2.126,4.683,2.54,7.239,1.455,7.563,2.324,15.221,3.743,22.794.793,4.137,1.319,8.32,2.228,12.438C244.858,71.433,244.312,71.439,244.04,71.444Zm7.618-.02c-1.369-5.8-3.137-11.488-4.991-17.141-1.49-5.471-3.122-10.9-4.708-16.348-.5-1.824-1.591-3.683-1.026-5.623.127-.542.234-1.089.331-1.637a.49.49,0,0,0,.17-.354,5.706,5.706,0,0,1,1.711-3.294,6.917,6.917,0,0,1,1.481,2.274c2.026,4.905,2.612,10.23,3.627,15.4,1.384,8.932,2.768,17.869,4.481,26.75C252.461,71.444,251.926,71.428,251.658,71.423Zm5.82-6.886c-1.92-6.214-3.4-12.554-5.36-18.758-1.01-3.961-2.475-7.8-3.45-11.766-.727-2.677.823-5.234,2.112-7.462a59.563,59.563,0,0,1,3.026,7.083,66.088,66.088,0,0,1,1.788,9.73c.44,3.3,1.288,6.522,1.819,9.806.733,4.653,1.253,9.351,2.294,13.953a19.459,19.459,0,0,1,.44,4.749C258.705,69.66,258.271,67.013,257.478,64.538Zm6.881-3.587c-2.006-5.891-3.738-11.872-5.284-17.9-.758-2.986-2.041-5.815-2.7-8.826-.48-1.672.3-3.285.561-4.92.042-.109.085-.218.13-.326.1-.185.19-.37.29-.552a.509.509,0,0,0,.063-.222,13.513,13.513,0,0,1,.779-1.376l.921.036c.7,1.97,1.5,3.9,2.243,5.85,1.233,3.238,1.465,6.724,2.026,10.114.652,3.991,1.359,7.977,1.94,11.978.894,5.693,2.324,11.331,2.526,17.116C266.03,68.493,265.606,64.578,264.358,60.951Z" transform="translate(-1.627 -1)"/><path class="b43f4d9d-f10e-4643-b53a-c4f675b926b1" d="M1.8,46.111c-.009.942-.014,1.884-.033,2.826.012-.082.02-.165.031-.247Z" transform="translate(-1.627 -1)"/><path class="b43f4d9d-f10e-4643-b53a-c4f675b926b1" d="M268.971,35.757c-.03-2.223.217-4.491-.338-6.674.071,15.393,0,30.791-.005,46.184a18.626,18.626,0,0,0,.349-5.163C268.981,58.652,268.955,47.2,268.971,35.757Z" transform="translate(-1.627 -1)"/><path class="b43f4d9d-f10e-4643-b53a-c4f675b926b1" d="M44.085,46.555a7.009,7.009,0,0,1,1.494-4.813,5.69,5.69,0,0,1,4.481-1.678,5.689,5.689,0,0,1,4.481,1.678,7.009,7.009,0,0,1,1.494,4.813v.811H52.2V46.3a2.874,2.874,0,0,0-.535-1.973,2.237,2.237,0,0,0-2.987,0,2.871,2.871,0,0,0-.535,1.973,4.568,4.568,0,0,0,.59,2.342,9.718,9.718,0,0,0,1.475,1.918q.885.9,1.9,1.807a18.122,18.122,0,0,1,1.9,1.973A10.068,10.068,0,0,1,55.48,56.77a8.046,8.046,0,0,1,.59,3.208,6.9,6.9,0,0,1-1.531,4.813,5.808,5.808,0,0,1-4.518,1.678A5.808,5.808,0,0,1,45.5,64.792a6.9,6.9,0,0,1-1.53-4.813V58.393h3.835v1.844a2.669,2.669,0,0,0,.572,1.955,2.394,2.394,0,0,0,3.061,0,2.672,2.672,0,0,0,.572-1.955,4.575,4.575,0,0,0-.59-2.342,9.773,9.773,0,0,0-1.475-1.918q-.885-.9-1.9-1.807a17.943,17.943,0,0,1-1.9-1.973,10.026,10.026,0,0,1-1.475-2.434A8.032,8.032,0,0,1,44.085,46.555Z" transform="translate(-1.627 -1)"/><path class="b43f4d9d-f10e-4643-b53a-c4f675b926b1" d="M61.233,40.359V60.274a2.669,2.669,0,0,0,.572,1.955,2.393,2.393,0,0,0,3.061,0,2.672,2.672,0,0,0,.572-1.955V40.359h3.835V60.016a6.9,6.9,0,0,1-1.53,4.813,5.808,5.808,0,0,1-4.518,1.678,5.807,5.807,0,0,1-4.518-1.678,6.9,6.9,0,0,1-1.53-4.813V40.359Z" transform="translate(-1.627 -1)"/><path class="b43f4d9d-f10e-4643-b53a-c4f675b926b1" d="M79.488,66.174c-.05-.172-.1-.332-.148-.48a3.651,3.651,0,0,1-.129-.553,6.737,6.737,0,0,1-.074-.848q-.019-.516-.019-1.291V58.946a3.974,3.974,0,0,0-.627-2.545,2.526,2.526,0,0,0-2.028-.738h-1.4V66.174H71.006V40.359h6.122q3.171,0,4.591,1.475a6.216,6.216,0,0,1,1.42,4.462v2.028q0,3.983-2.655,5.237a3.633,3.633,0,0,1,2.12,2.047,9.249,9.249,0,0,1,.572,3.448V63.04a16.628,16.628,0,0,0,.074,1.678,5.382,5.382,0,0,0,.369,1.457ZM75.062,44.047v7.929h1.586a2.553,2.553,0,0,0,1.789-.59,2.833,2.833,0,0,0,.646-2.139V46.7a3.277,3.277,0,0,0-.5-2.028,1.881,1.881,0,0,0-1.567-.627Z" transform="translate(-1.627 -1)"/><path class="b43f4d9d-f10e-4643-b53a-c4f675b926b1" d="M83.618,40.359H96.156v3.688H91.915V66.174H87.859V44.047H83.618Z" transform="translate(-1.627 -1)"/><path class="b43f4d9d-f10e-4643-b53a-c4f675b926b1" d="M96.894,40.359h4.057V66.174H96.894Z" transform="translate(-1.627 -1)"/><path class="b43f4d9d-f10e-4643-b53a-c4f675b926b1" d="M106.482,47.477v18.7h-3.651V40.359h5.089l4.167,15.452V40.359H115.7V66.174h-4.167Z" transform="translate(-1.627 -1)"/><path class="b43f4d9d-f10e-4643-b53a-c4f675b926b1" d="M117.582,40.359h4.057V66.174h-4.057Z" transform="translate(-1.627 -1)"/><path class="b43f4d9d-f10e-4643-b53a-c4f675b926b1" d="M129.53,40.359a5.9,5.9,0,0,1,4.555,1.623,6.8,6.8,0,0,1,1.493,4.757V50.1a6.793,6.793,0,0,1-1.493,4.757,5.9,5.9,0,0,1-4.555,1.623h-1.918v9.7h-4.057V40.359Zm-1.918,3.688v8.74h1.918a2,2,0,0,0,1.475-.516,2.714,2.714,0,0,0,.516-1.918V46.481a2.716,2.716,0,0,0-.516-1.918,2,2,0,0,0-1.475-.516Z" transform="translate(-1.627 -1)"/><path class="b43f4d9d-f10e-4643-b53a-c4f675b926b1" d="M136.61,40.359h4.057V62.487h6.675v3.688H136.61Z" transform="translate(-1.627 -1)"/><path class="b43f4d9d-f10e-4643-b53a-c4f675b926b1" d="M152.136,51.239H157.7v3.688h-5.569v7.56h7.007v3.688H148.079V40.359h11.064v3.688h-7.007Z" transform="translate(-1.627 -1)"/><path class="b43f4d9d-f10e-4643-b53a-c4f675b926b1" d="M160.1,46.555a7.009,7.009,0,0,1,1.494-4.813,6.821,6.821,0,0,1,8.961,0,7.009,7.009,0,0,1,1.494,4.813v.811h-3.835V46.3a2.874,2.874,0,0,0-.535-1.973,2.237,2.237,0,0,0-2.987,0,2.871,2.871,0,0,0-.535,1.973,4.568,4.568,0,0,0,.59,2.342,9.718,9.718,0,0,0,1.475,1.918q.885.9,1.9,1.807a18.122,18.122,0,0,1,1.9,1.973A10.068,10.068,0,0,1,171.5,56.77a8.046,8.046,0,0,1,.59,3.208,6.9,6.9,0,0,1-1.531,4.813,6.921,6.921,0,0,1-9.035,0,6.9,6.9,0,0,1-1.53-4.813V58.393h3.835v1.844a2.669,2.669,0,0,0,.572,1.955,2.394,2.394,0,0,0,3.061,0,2.672,2.672,0,0,0,.572-1.955,4.575,4.575,0,0,0-.59-2.342,9.773,9.773,0,0,0-1.475-1.918q-.885-.9-1.9-1.807a17.943,17.943,0,0,1-1.9-1.973,10.026,10.026,0,0,1-1.475-2.434A8.032,8.032,0,0,1,160.1,46.555Z" transform="translate(-1.627 -1)"/><path class="b43f4d9d-f10e-4643-b53a-c4f675b926b1" d="M178.1,66.174V40.359h2.955v23.2h7.578v2.618Z" transform="translate(-1.627 -1)"/><path class="b43f4d9d-f10e-4643-b53a-c4f675b926b1" d="M190.411,48.346h-1.425V45.669H190.7l.679-5.31h2.4v5.31h2.93v2.677h-2.93V61.375a4.168,4.168,0,0,0,.113,1.078,1.625,1.625,0,0,0,.313.64.946.946,0,0,0,.466.3,2.061,2.061,0,0,0,.559.074,2.619,2.619,0,0,0,.872-.134,3.1,3.1,0,0,0,.726-.372v2.082a3.038,3.038,0,0,1-.633.654,3.505,3.505,0,0,1-.7.409,3.037,3.037,0,0,1-.733.216,4.68,4.68,0,0,1-.733.059,4.441,4.441,0,0,1-1.359-.208,2.542,2.542,0,0,1-1.159-.8,4.288,4.288,0,0,1-.806-1.629,10.043,10.043,0,0,1-.3-2.707Z" transform="translate(-1.627 -1)"/><path class="b43f4d9d-f10e-4643-b53a-c4f675b926b1" d="M201.769,66.388a4.734,4.734,0,0,1-.719-.065,2.781,2.781,0,0,1-.853-.294,3.257,3.257,0,0,1-.866-.689,4.225,4.225,0,0,1-.759-1.255,9.369,9.369,0,0,1-.539-1.972,16.8,16.8,0,0,1-.206-2.855V52.989a15.249,15.249,0,0,1,.22-2.812,7.909,7.909,0,0,1,.579-1.9,3.946,3.946,0,0,1,.806-1.176,3.274,3.274,0,0,1,.892-.624,2.8,2.8,0,0,1,.853-.244,6.6,6.6,0,0,1,.673-.043,3,3,0,0,1,.932.143,3.318,3.318,0,0,1,.8.38,3.649,3.649,0,0,1,.639.531,3.692,3.692,0,0,1,.466.6l.013-.014-.107-2.5V40.064h3.357V66.158h-2.624l-.293-1.836a6.793,6.793,0,0,1-.519.76,3.537,3.537,0,0,1-.693.667,3.32,3.32,0,0,1-.906.466A3.548,3.548,0,0,1,201.769,66.388Zm1.146-2.611a1.471,1.471,0,0,0,.593-.113,1.8,1.8,0,0,0,.466-.293,1.931,1.931,0,0,0,.36-.42,3.322,3.322,0,0,0,.26-.493V51.429a2.958,2.958,0,0,0-.673-.952,1.437,1.437,0,0,0-1.019-.393,1.69,1.69,0,0,0-.679.133,1.208,1.208,0,0,0-.533.5,3.067,3.067,0,0,0-.353,1.012,8.967,8.967,0,0,0-.127,1.672v7.033a9.072,9.072,0,0,0,.127,1.678,3.072,3.072,0,0,0,.353,1.019,1.242,1.242,0,0,0,.539.506A1.662,1.662,0,0,0,202.915,63.777Z" transform="translate(-1.627 -1)"/><path class="b43f4d9d-f10e-4643-b53a-c4f675b926b1" d="M213.18,66.374a3.255,3.255,0,0,1-1.512-.34,3.292,3.292,0,0,1-1.112-.926,4.117,4.117,0,0,1-.686-1.392,6.281,6.281,0,0,1-.233-1.752,6.633,6.633,0,0,1,.28-2.011,5.172,5.172,0,0,1,.819-1.585,6.38,6.38,0,0,1,1.339-1.285,12.824,12.824,0,0,1,1.852-1.1q.506-.253,1.139-.513t1.126-.446V52.6q0-.532-.04-.992a2.462,2.462,0,0,0-.193-.8,1.2,1.2,0,0,0-.46-.533,1.569,1.569,0,0,0-.839-.193,1.9,1.9,0,0,0-.7.133,1.456,1.456,0,0,0-.6.453,2.384,2.384,0,0,0-.413.853,4.844,4.844,0,0,0-.153,1.319v.8h-2.571q-.12-.519-.18-.952a6.253,6.253,0,0,1-.06-.859,4.382,4.382,0,0,1,.353-1.812,3.652,3.652,0,0,1,.986-1.319,4.294,4.294,0,0,1,1.512-.806,6.5,6.5,0,0,1,1.931-.273,7.358,7.358,0,0,1,2.278.3,3.283,3.283,0,0,1,1.445.9,3.4,3.4,0,0,1,.759,1.505,9.054,9.054,0,0,1,.22,2.118V66.174h-2.5l-.24-1.572a4.129,4.129,0,0,1-1.459,1.279A4.32,4.32,0,0,1,213.18,66.374Zm1.492-2.6a1.731,1.731,0,0,0,.833-.22,2.448,2.448,0,0,0,.686-.539V57.276q-.267.107-.6.253a5.877,5.877,0,0,0-.719.386,4.888,4.888,0,0,0-.706.546,3.621,3.621,0,0,0-.619.759,4.13,4.13,0,0,0-.44.992,4.255,4.255,0,0,0-.167,1.232,3.078,3.078,0,0,0,.413,1.692A1.453,1.453,0,0,0,214.672,63.777Z" transform="translate(-1.627 -1)"/><path class="b43f4d9d-f10e-4643-b53a-c4f675b926b1" d="M221.674,63.79a2.968,2.968,0,0,1,.559-2.025,1.955,1.955,0,0,1,1.519-.613,1.9,1.9,0,0,1,1.545.653,3.043,3.043,0,0,1,.546,1.985,2.914,2.914,0,0,1-.553,1.9,2.094,2.094,0,0,1-3.057.02A2.874,2.874,0,0,1,221.674,63.79Z" transform="translate(-1.627 -1)"/><path class="b43f4d9d-f10e-4643-b53a-c4f675b926b1" d="M45.641,15.112H43.887V4.293h6.105V5.788H45.641V9.17h4.078v1.5H45.641Z" transform="translate(-1.627 -1)"/><path class="b43f4d9d-f10e-4643-b53a-c4f675b926b1" d="M68.682,15.112h-6.12V4.293h6.12V5.788H64.331V8.733h4.078v1.48H64.331v3.4h4.351Z" transform="translate(-1.627 -1)"/><path class="b43f4d9d-f10e-4643-b53a-c4f675b926b1" d="M83.4,10.79v4.322H81.629V4.293h3.056a5.022,5.022,0,0,1,3.1.784,2.816,2.816,0,0,1,1.006,2.368,2.96,2.96,0,0,1-2.1,2.879l3.056,4.788H87.735l-2.59-4.322Zm0-1.465h1.228a2.805,2.805,0,0,0,1.791-.459A1.665,1.665,0,0,0,86.972,7.5a1.466,1.466,0,0,0-.6-1.317,3.287,3.287,0,0,0-1.806-.4H83.4Z" transform="translate(-1.627 -1)"/><path class="b43f4d9d-f10e-4643-b53a-c4f675b926b1" d="M103.694,10.79v4.322h-1.769V4.293h3.056a5.022,5.022,0,0,1,3.1.784,2.816,2.816,0,0,1,1.006,2.368,2.96,2.96,0,0,1-2.1,2.879l3.056,4.788H108.03l-2.59-4.322Zm0-1.465h1.228a2.805,2.805,0,0,0,1.791-.459,1.665,1.665,0,0,0,.555-1.362,1.466,1.466,0,0,0-.6-1.317,3.287,3.287,0,0,0-1.806-.4h-1.169Z" transform="translate(-1.627 -1)"/><path class="b43f4d9d-f10e-4643-b53a-c4f675b926b1" d="M128.341,15.112h-6.12V4.293h6.12V5.788H123.99V8.733h4.078v1.48H123.99v3.4h4.351Z" transform="translate(-1.627 -1)"/><path class="b43f4d9d-f10e-4643-b53a-c4f675b926b1" d="M145.026,15.112h-1.769V5.81h-3.182V4.293h8.133V5.81h-3.182Z" transform="translate(-1.627 -1)"/><path class="b43f4d9d-f10e-4643-b53a-c4f675b926b1" d="M166.594,15.112h-6.12V4.293h6.12V5.788h-4.351V8.733h4.078v1.48h-4.078v3.4h4.351Z" transform="translate(-1.627 -1)"/><path class="b43f4d9d-f10e-4643-b53a-c4f675b926b1" d="M181.31,10.79v4.322h-1.769V4.293H182.6a5.022,5.022,0,0,1,3.1.784,2.816,2.816,0,0,1,1.006,2.368,2.96,2.96,0,0,1-2.1,2.879l3.056,4.788h-2.013l-2.59-4.322Zm0-1.465h1.228a2.805,2.805,0,0,0,1.791-.459,1.665,1.665,0,0,0,.555-1.362,1.466,1.466,0,0,0-.6-1.317,3.287,3.287,0,0,0-1.806-.4H181.31Z" transform="translate(-1.627 -1)"/><path class="b43f4d9d-f10e-4643-b53a-c4f675b926b1" d="M199.734,3.427V3.242q.422-.518.87-1.154T201.31,1h2.02v.155a15.2,15.2,0,0,1-1.151,1.166,16.225,16.225,0,0,1-1.291,1.106Zm.1,11.685V4.293h1.769V15.112Z" transform="translate(-1.627 -1)"/><path class="b43f4d9d-f10e-4643-b53a-c4f675b926b1" d="M221.783,15.112l-1.08-3h-4.137l-1.058,3h-1.865l4.048-10.864h1.924l4.048,10.864Zm-1.547-4.529-1.014-2.945q-.111-.3-.307-.932t-.27-.932a16.585,16.585,0,0,1-.585,1.991l-.977,2.819Z" transform="translate(-1.627 -1)"/><path class="b43f4d9d-f10e-4643-b53a-c4f675b926b1" d="M3.4,97.852V87.033H5.164V97.852Z" transform="translate(-1.627 -1)"/><path class="b43f4d9d-f10e-4643-b53a-c4f675b926b1" d="M13.562,97.852l-3.138-9.036h-.059q.126,2.013.126,3.774v5.262H8.885V87.033h2.494l3,8.606h.044l3.093-8.606h2.5V97.852h-1.7V92.5q0-.807.041-2.1t.07-1.569h-.059l-3.249,9.021Z" transform="translate(-1.627 -1)"/><path class="b43f4d9d-f10e-4643-b53a-c4f675b926b1" d="M30.9,90.3a3.155,3.155,0,0,1-1.11,2.6,4.89,4.89,0,0,1-3.16.9H25.5v4.048H23.735V87.033h3.115a4.713,4.713,0,0,1,3.038.829A2.975,2.975,0,0,1,30.9,90.3ZM25.5,92.317h.94a3.368,3.368,0,0,0,2-.474,1.724,1.724,0,0,0,.636-1.48,1.679,1.679,0,0,0-.57-1.391,2.814,2.814,0,0,0-1.776-.459H25.5Z" transform="translate(-1.627 -1)"/><path class="b43f4d9d-f10e-4643-b53a-c4f675b926b1" d="M43.529,92.428a5.918,5.918,0,0,1-1.321,4.107A4.777,4.777,0,0,1,38.467,98,4.811,4.811,0,0,1,34.7,96.546a5.955,5.955,0,0,1-1.314-4.133A5.863,5.863,0,0,1,34.711,88.3a4.867,4.867,0,0,1,3.77-1.436,4.769,4.769,0,0,1,3.73,1.458A5.912,5.912,0,0,1,43.529,92.428Zm-8.259,0a4.851,4.851,0,0,0,.807,3.03,3.283,3.283,0,0,0,4.769.011,6.145,6.145,0,0,0,.007-6.061,2.813,2.813,0,0,0-2.372-1.029,2.871,2.871,0,0,0-2.4,1.029A4.8,4.8,0,0,0,35.27,92.428Z" transform="translate(-1.627 -1)"/><path class="b43f4d9d-f10e-4643-b53a-c4f675b926b1" d="M48.485,93.53v4.322H46.716V87.033h3.056a5.022,5.022,0,0,1,3.1.784,2.816,2.816,0,0,1,1.006,2.368,2.96,2.96,0,0,1-2.1,2.879l3.056,4.788H52.821l-2.59-4.322Zm0-1.465h1.228a2.805,2.805,0,0,0,1.791-.459,1.665,1.665,0,0,0,.555-1.362,1.466,1.466,0,0,0-.6-1.317,3.287,3.287,0,0,0-1.806-.4H48.485Z" transform="translate(-1.627 -1)"/><path class="b43f4d9d-f10e-4643-b53a-c4f675b926b1" d="M61,97.852H59.235v-9.3H56.053V87.033h8.133V88.55H61Z" transform="translate(-1.627 -1)"/><path class="b43f4d9d-f10e-4643-b53a-c4f675b926b1" d="M73.42,97.852l-1.08-3H68.2l-1.058,3H65.279l4.048-10.864h1.924L75.3,97.852Zm-1.547-4.529-1.014-2.945q-.111-.3-.307-.932t-.27-.932A16.585,16.585,0,0,1,69.7,90.5l-.977,2.819Z" transform="translate(-1.627 -1)"/><path class="b43f4d9d-f10e-4643-b53a-c4f675b926b1" d="M86.39,92.339a5.392,5.392,0,0,1-1.487,4.1,5.974,5.974,0,0,1-4.285,1.417H77.592V87.033h3.345a5.534,5.534,0,0,1,4.018,1.391A5.2,5.2,0,0,1,86.39,92.339Zm-1.865.059q0-3.885-3.634-3.885H79.36v7.852h1.258Q84.526,96.365,84.526,92.4Z" transform="translate(-1.627 -1)"/><path class="b43f4d9d-f10e-4643-b53a-c4f675b926b1" d="M99.183,92.428a5.918,5.918,0,0,1-1.321,4.107,5.552,5.552,0,0,1-7.5.011,5.955,5.955,0,0,1-1.314-4.133A5.863,5.863,0,0,1,90.366,88.3a4.867,4.867,0,0,1,3.77-1.436,4.769,4.769,0,0,1,3.73,1.458A5.912,5.912,0,0,1,99.183,92.428Zm-8.259,0a4.851,4.851,0,0,0,.807,3.03,3.283,3.283,0,0,0,4.769.011,6.145,6.145,0,0,0,.007-6.061,2.813,2.813,0,0,0-2.372-1.029,2.871,2.871,0,0,0-2.4,1.029A4.8,4.8,0,0,0,90.925,92.428Z" transform="translate(-1.627 -1)"/><path class="b43f4d9d-f10e-4643-b53a-c4f675b926b1" d="M104.14,93.53v4.322h-1.769V87.033h3.056a5.022,5.022,0,0,1,3.1.784,2.816,2.816,0,0,1,1.006,2.368,2.96,2.96,0,0,1-2.1,2.879l3.056,4.788h-2.013l-2.59-4.322Zm0-1.465h1.228a2.805,2.805,0,0,0,1.791-.459,1.665,1.665,0,0,0,.555-1.362,1.466,1.466,0,0,0-.6-1.317,3.287,3.287,0,0,0-1.806-.4H104.14Z" transform="translate(-1.627 -1)"/><path class="b43f4d9d-f10e-4643-b53a-c4f675b926b1" d="M119.042,97.852h-6.12V87.033h6.12v1.495H114.69v2.945h4.078v1.48H114.69v3.4h4.351Z" transform="translate(-1.627 -1)"/><path class="b43f4d9d-f10e-4643-b53a-c4f675b926b1" d="M128.482,94.914a2.723,2.723,0,0,1-1.043,2.264A4.541,4.541,0,0,1,124.56,98a6.869,6.869,0,0,1-3-.57V95.758a8.166,8.166,0,0,0,1.573.548,6.668,6.668,0,0,0,1.55.2,2.466,2.466,0,0,0,1.55-.4,1.3,1.3,0,0,0,.5-1.073A1.345,1.345,0,0,0,126.27,94a6.907,6.907,0,0,0-1.894-1,5.012,5.012,0,0,1-2.087-1.369,2.9,2.9,0,0,1-.607-1.85,2.591,2.591,0,0,1,.962-2.131,3.991,3.991,0,0,1,2.583-.777,7.588,7.588,0,0,1,3.093.681L127.757,89a6.758,6.758,0,0,0-2.575-.607,1.976,1.976,0,0,0-1.3.374,1.227,1.227,0,0,0-.444.988,1.391,1.391,0,0,0,.178.722,1.814,1.814,0,0,0,.585.566,9.889,9.889,0,0,0,1.465.7,8.017,8.017,0,0,1,1.746.925,2.721,2.721,0,0,1,.814.969A2.916,2.916,0,0,1,128.482,94.914Z" transform="translate(-1.627 -1)"/><path class="b43f4d9d-f10e-4643-b53a-c4f675b926b1" d="M142.361,97.852h-6.12V87.033h6.12v1.495H138.01v2.945h4.078v1.48H138.01v3.4h4.351Z" transform="translate(-1.627 -1)"/><path class="b43f4d9d-f10e-4643-b53a-c4f675b926b1" d="M151.8,94.914a2.723,2.723,0,0,1-1.043,2.264A4.541,4.541,0,0,1,147.88,98a6.869,6.869,0,0,1-3-.57V95.758a8.166,8.166,0,0,0,1.573.548,6.668,6.668,0,0,0,1.55.2,2.466,2.466,0,0,0,1.55-.4,1.3,1.3,0,0,0,.5-1.073A1.345,1.345,0,0,0,149.589,94a6.907,6.907,0,0,0-1.894-1,5.012,5.012,0,0,1-2.087-1.369,2.9,2.9,0,0,1-.607-1.85,2.591,2.591,0,0,1,.962-2.131,3.991,3.991,0,0,1,2.583-.777,7.588,7.588,0,0,1,3.093.681L151.077,89a6.758,6.758,0,0,0-2.575-.607,1.976,1.976,0,0,0-1.3.374,1.227,1.227,0,0,0-.444.988,1.391,1.391,0,0,0,.178.722,1.814,1.814,0,0,0,.585.566,9.889,9.889,0,0,0,1.465.7,8.017,8.017,0,0,1,1.746.925,2.721,2.721,0,0,1,.814.969A2.916,2.916,0,0,1,151.8,94.914Z" transform="translate(-1.627 -1)"/><path class="b43f4d9d-f10e-4643-b53a-c4f675b926b1" d="M161.923,90.3a3.155,3.155,0,0,1-1.11,2.6,4.89,4.89,0,0,1-3.16.9h-1.125v4.048H154.76V87.033h3.115a4.713,4.713,0,0,1,3.038.829A2.975,2.975,0,0,1,161.923,90.3Zm-5.395,2.013h.94a3.368,3.368,0,0,0,2-.474,1.724,1.724,0,0,0,.636-1.48,1.679,1.679,0,0,0-.57-1.391,2.814,2.814,0,0,0-1.776-.459h-1.228Z" transform="translate(-1.627 -1)"/><path class="b43f4d9d-f10e-4643-b53a-c4f675b926b1" d="M171.068,97.852h-6.12V87.033h6.12v1.495h-4.351v2.945h4.078v1.48h-4.078v3.4h4.351Z" transform="translate(-1.627 -1)"/><path class="b43f4d9d-f10e-4643-b53a-c4f675b926b1" d="M178.873,88.395a2.915,2.915,0,0,0-2.4,1.08,5.671,5.671,0,0,0-.033,5.994,2.967,2.967,0,0,0,2.431,1.021,6.388,6.388,0,0,0,1.332-.137q.644-.137,1.339-.352v1.517a8.121,8.121,0,0,1-2.886.481,4.613,4.613,0,0,1-3.648-1.439,6.021,6.021,0,0,1-1.273-4.118,6.655,6.655,0,0,1,.618-2.953,4.41,4.41,0,0,1,1.787-1.939,5.405,5.405,0,0,1,2.745-.673,6.813,6.813,0,0,1,3.064.7l-.636,1.473a9.5,9.5,0,0,0-1.158-.455A4.173,4.173,0,0,0,178.873,88.395Z" transform="translate(-1.627 -1)"/><path class="b43f4d9d-f10e-4643-b53a-c4f675b926b1" d="M184.74,97.852V87.033h1.769V97.852Z" transform="translate(-1.627 -1)"/><path class="b43f4d9d-f10e-4643-b53a-c4f675b926b1" d="M196.941,97.852l-1.08-3h-4.137l-1.058,3H188.8l4.048-10.864h1.924l4.048,10.864Zm-1.547-4.529-1.014-2.945q-.111-.3-.307-.932t-.27-.932a16.585,16.585,0,0,1-.585,1.991l-.977,2.819Z" transform="translate(-1.627 -1)"/><path class="b43f4d9d-f10e-4643-b53a-c4f675b926b1" d="M201.113,97.852V87.033h1.769v9.3h4.581v1.517Z" transform="translate(-1.627 -1)"/><path class="b43f4d9d-f10e-4643-b53a-c4f675b926b1" d="M210.191,97.852V87.033h1.769V97.852Z" transform="translate(-1.627 -1)"/><path class="b43f4d9d-f10e-4643-b53a-c4f675b926b1" d="M222.481,97.852H214.74V96.624l5.454-8.074h-5.306V87.033h7.445v1.243l-5.476,8.059h5.624Z" transform="translate(-1.627 -1)"/><path class="b43f4d9d-f10e-4643-b53a-c4f675b926b1" d="M231.973,97.852l-1.08-3h-4.137l-1.058,3h-1.865l4.048-10.864H229.8l4.048,10.864Zm-1.547-4.529-1.014-2.945q-.111-.3-.307-.932t-.27-.932a16.585,16.585,0,0,1-.585,1.991l-.977,2.819Z" transform="translate(-1.627 -1)"/><path class="b43f4d9d-f10e-4643-b53a-c4f675b926b1" d="M244.944,92.339a5.392,5.392,0,0,1-1.487,4.1,5.974,5.974,0,0,1-4.285,1.417h-3.027V87.033h3.345a5.534,5.534,0,0,1,4.018,1.391A5.2,5.2,0,0,1,244.944,92.339Zm-1.865.059q0-3.885-3.634-3.885h-1.532v7.852h1.258Q243.079,96.365,243.079,92.4Z" transform="translate(-1.627 -1)"/><path class="b43f4d9d-f10e-4643-b53a-c4f675b926b1" d="M257.737,92.428a5.918,5.918,0,0,1-1.321,4.107,5.552,5.552,0,0,1-7.5.011,5.955,5.955,0,0,1-1.314-4.133,5.863,5.863,0,0,1,1.321-4.115,4.867,4.867,0,0,1,3.77-1.436,4.769,4.769,0,0,1,3.73,1.458A5.912,5.912,0,0,1,257.737,92.428Zm-8.259,0a4.851,4.851,0,0,0,.807,3.03,3.283,3.283,0,0,0,4.769.011,6.145,6.145,0,0,0,.007-6.061,2.813,2.813,0,0,0-2.372-1.029,2.871,2.871,0,0,0-2.4,1.029A4.8,4.8,0,0,0,249.478,92.428Z" transform="translate(-1.627 -1)"/><path class="b43f4d9d-f10e-4643-b53a-c4f675b926b1" d="M267.163,94.914a2.723,2.723,0,0,1-1.043,2.264A4.541,4.541,0,0,1,263.24,98a6.869,6.869,0,0,1-3-.57V95.758a8.166,8.166,0,0,0,1.573.548,6.668,6.668,0,0,0,1.55.2,2.466,2.466,0,0,0,1.55-.4,1.3,1.3,0,0,0,.5-1.073A1.345,1.345,0,0,0,264.95,94a6.907,6.907,0,0,0-1.894-1,5.012,5.012,0,0,1-2.087-1.369,2.9,2.9,0,0,1-.607-1.85,2.591,2.591,0,0,1,.962-2.131,3.991,3.991,0,0,1,2.583-.777,7.588,7.588,0,0,1,3.093.681L266.437,89a6.758,6.758,0,0,0-2.575-.607,1.976,1.976,0,0,0-1.3.374,1.227,1.227,0,0,0-.444.988,1.391,1.391,0,0,0,.178.722,1.814,1.814,0,0,0,.585.566,9.889,9.889,0,0,0,1.465.7,8.017,8.017,0,0,1,1.746.925,2.721,2.721,0,0,1,.814.969A2.916,2.916,0,0,1,267.163,94.914Z" transform="translate(-1.627 -1)"/></svg>